<svg width="16" height="16" viewBox="0 0 16 16" fill="none" xmlns="http://www.w3.org/2000/svg">
<rect x="1" y="8.55576" width="6.00022" height="6.00022" rx="3.00011" stroke="#484848" stroke-width="2"/>
<path d="M10.1335 11.5559H11.9991C11.9991 10.5636 11.8037 9.58111 11.424 8.6644C11.0443 7.7477 10.4877 6.91475 9.78609 6.21314C9.08447 5.51152 8.25153 4.95497 7.33482 4.57525C6.41812 4.19554 5.4356 4.00011 4.44336 4.00011V5.86573C5.1906 5.86573 5.93052 6.01291 6.62088 6.29886C7.31124 6.58482 7.93852 7.00395 8.4669 7.53233C8.99527 8.06071 9.41441 8.68798 9.70036 9.37835C9.98632 10.0687 10.1335 10.8086 10.1335 11.5559Z" fill="#484848"/>
<path d="M4.44336 0V1.879C7.00982 1.879 9.47117 2.89853 11.2859 4.71329C13.1007 6.52806 14.1202 8.9894 14.1202 11.5559H15.9992C15.9992 8.49106 14.7817 5.55178 12.6146 3.38464C10.4474 1.21749 7.50817 0 4.44336 0Z" fill="#484848"/>
</svg>
