<svg width="273" height="54" viewBox="0 0 273 54" fill="none" xmlns="http://www.w3.org/2000/svg">
<rect x="30.1288" y="16.432" width="15.5418" height="15.5418" rx="2" transform="rotate(-58.8662 30.1288 16.432)" stroke="#585858" stroke-width="4"/>
<rect x="31.3791" y="34.1355" width="15.5418" height="15.5418" rx="2" transform="rotate(-13.9842 31.3791 34.1355)" stroke="#373737" stroke-width="4"/>
<rect x="2.82434" y="13.208" width="15.5418" height="15.5418" rx="2" transform="rotate(-41.9213 2.82434 13.208)" stroke="#373737" stroke-width="4"/>
<rect x="3.22685" y="42.7984" width="15.5418" height="15.5418" rx="2" transform="rotate(-60.8429 3.22685 42.7984)" stroke="#373737" stroke-width="4"/>
<rect x="58.3905" y="9.00182" width="15.5418" height="15.5418" rx="2" transform="rotate(-19.1229 58.3905 9.00182)" stroke="#373737" stroke-width="4"/>
<rect x="57.7242" y="42.8612" width="15.5418" height="15.5418" rx="2" transform="rotate(-61.183 57.7242 42.8612)" stroke="#585858" stroke-width="4"/>
<rect x="85.5525" y="17.8737" width="15.5418" height="15.5418" rx="2" transform="rotate(-66.768 85.5525 17.8737)" stroke="#585858" stroke-width="4"/>
<rect x="85.8307" y="35.0866" width="15.5418" height="15.5418" rx="2" transform="rotate(-19.613 85.8307 35.0866)" stroke="#373737" stroke-width="4"/>
<rect x="113.623" y="8.47719" width="15.5418" height="15.5418" rx="2" transform="rotate(-16.0411 113.623 8.47719)" stroke="#373737" stroke-width="4"/>
<rect x="112.477" y="42.0197" width="15.5418" height="15.5418" rx="2" transform="rotate(-56.6622 112.477 42.0197)" stroke="#585858" stroke-width="4"/>
<rect x="140.335" y="17.3923" width="15.5418" height="15.5418" rx="2" transform="rotate(-64.0891 140.335 17.3923)" stroke="#585858" stroke-width="4"/>
<rect x="140.281" y="36.3645" width="15.5418" height="15.5418" rx="2" transform="rotate(-26.7932 140.281 36.3645)" stroke="#373737" stroke-width="4"/>
<rect x="167.873" y="10.0443" width="15.5418" height="15.5418" rx="2" transform="rotate(-25.0264 167.873 10.0443)" stroke="#373737" stroke-width="4"/>
<rect x="167.432" y="41.9851" width="15.5418" height="15.5418" rx="2" transform="rotate(-56.4778 167.432 41.9851)" stroke="#585858" stroke-width="4"/>
<rect x="194.384" y="15.7344" width="15.5418" height="15.5418" rx="2" transform="rotate(-55.1474 194.384 15.7344)" stroke="#585858" stroke-width="4"/>
<rect x="195.467" y="34.6997" width="15.5418" height="15.5418" rx="2" transform="rotate(-17.3584 195.467 34.6997)" stroke="#373737" stroke-width="4"/>
<rect x="221.729" y="10.4684" width="15.5418" height="15.5418" rx="2" transform="rotate(-27.3624 221.729 10.4684)" stroke="#373737" stroke-width="4"/>
<rect x="222.364" y="44.6944" width="15.5418" height="15.5418" rx="2" transform="rotate(-71.4567 222.364 44.6944)" stroke="#585858" stroke-width="4"/>
<rect x="249.145" y="18.2297" width="15.5418" height="15.5418" rx="2" transform="rotate(-68.7807 249.145 18.2297)" stroke="#373737" stroke-width="4"/>
<rect x="248.974" y="43.8197" width="15.5418" height="15.5418" rx="2" transform="rotate(-66.4645 248.974 43.8197)" stroke="#373737" stroke-width="4"/>
</svg>
