<svg width="14" height="12" viewBox="0 0 14 12" fill="none" xmlns="http://www.w3.org/2000/svg">
<g clip-path="url(#clip0)">
<path d="M12.5296 2.90392C12.5381 3.02678 12.5381 3.14964 12.5381 3.27363C12.5381 7.05173 9.67035 11.409 4.42656 11.409V11.4068C2.87753 11.409 1.36067 10.964 0.0566406 10.1249C0.281883 10.1521 0.508254 10.1657 0.735189 10.1663C2.0189 10.1674 3.26591 9.7354 4.27583 8.93993C3.05591 8.91671 1.98616 8.11897 1.61245 6.95435C2.03979 7.03701 2.48011 7.02002 2.89954 6.90509C1.56954 6.63559 0.612689 5.4636 0.612689 4.10251C0.612689 4.09006 0.612689 4.07817 0.612689 4.06628C1.00898 4.28765 1.45269 4.41051 1.90656 4.4241C0.653899 3.58446 0.26777 1.91311 1.02422 0.606375C2.47164 2.39266 4.60721 3.47859 6.89971 3.59352C6.66995 2.60045 6.98382 1.55982 7.72446 0.861721C8.87269 -0.220809 10.6786 -0.165324 11.7579 0.985713C12.3964 0.859456 13.0083 0.624493 13.5683 0.291581C13.3555 0.953441 12.9101 1.51565 12.3151 1.87291C12.8802 1.8061 13.4323 1.65437 13.9522 1.4228C13.5695 1.99804 13.0874 2.4991 12.5296 2.90392Z" fill="#484848"/>
</g>
<defs>
<clipPath id="clip0">
<rect width="14" height="11.55" fill="white"/>
</clipPath>
</defs>
</svg>
